<svg id="SvgjsSvg1006" width="415" height="899" xmlns="http://www.w3.org/2000/svg" version="1.1" xmlns:xlink="http://www.w3.org/1999/xlink" xmlns:svgjs="http://svgjs.com/svgjs"><defs id="SvgjsDefs1007"><marker id="SvgjsMarker1016" markerWidth="16" markerHeight="12" refX="16" refY="6" viewBox="0 0 16 12" orient="auto" markerUnits="userSpaceOnUse" stroke-dasharray="0,0"><path id="SvgjsPath1017" d="M0,2 L14,6 L0,11 L0,2" fill="#323232" stroke="#323232" stroke-width="2"></path></marker><marker id="SvgjsMarker1036" markerWidth="16" markerHeight="12" refX="16" refY="6" viewBox="0 0 16 12" orient="auto" markerUnits="userSpaceOnUse" stroke-dasharray="0,0"><path id="SvgjsPath1037" d="M0,2 L14,6 L0,11 L0,2" fill="#323232" stroke="#323232" stroke-width="2"></path></marker><marker id="SvgjsMarker1040" markerWidth="16" markerHeight="12" refX="16" refY="6" viewBox="0 0 16 12" orient="auto" markerUnits="userSpaceOnUse" stroke-dasharray="0,0"><path id="SvgjsPath1041" d="M0,2 L14,6 L0,11 L0,2" fill="#323232" stroke="#323232" stroke-width="2"></path></marker><marker id="SvgjsMarker1050" markerWidth="16" markerHeight="12" refX="16" refY="6" viewBox="0 0 16 12" orient="auto" markerUnits="userSpaceOnUse" stroke-dasharray="0,0"><path id="SvgjsPath1051" d="M0,2 L14,6 L0,11 L0,2" fill="#323232" stroke="#323232" stroke-width="2"></path></marker><marker id="SvgjsMarker1064" markerWidth="16" markerHeight="12" refX="16" refY="6" viewBox="0 0 16 12" orient="auto" markerUnits="userSpaceOnUse" stroke-dasharray="0,0"><path id="SvgjsPath1065" d="M0,2 L14,6 L0,11 L0,2" fill="#323232" stroke="#323232" stroke-width="2"></path></marker><marker id="SvgjsMarker1074" markerWidth="16" markerHeight="12" refX="16" refY="6" viewBox="0 0 16 12" orient="auto" markerUnits="userSpaceOnUse" stroke-dasharray="0,0"><path id="SvgjsPath1075" d="M0,2 L14,6 L0,11 L0,2" fill="#323232" stroke="#323232" stroke-width="2"></path></marker><marker id="SvgjsMarker1086" markerWidth="16" markerHeight="12" refX="16" refY="6" viewBox="0 0 16 12" orient="auto" markerUnits="userSpaceOnUse" stroke-dasharray="0,0"><path id="SvgjsPath1087" d="M0,2 L14,6 L0,11 L0,2" fill="#323232" stroke="#323232" stroke-width="2"></path></marker></defs><g id="SvgjsG1008" transform="translate(51.5,25)"><path id="SvgjsPath1009" d="M 0 4Q 0 0 4 0L 308 0Q 312 0 312 4L 312 63Q 312 67 308 67L 4 67Q 0 67 0 63Z" stroke="rgba(50,50,50,1)" stroke-width="2" fill-opacity="1" fill="#ffffff"></path><g id="SvgjsG1010"><text id="SvgjsText1011" font-family="微软雅黑" text-anchor="middle" font-size="13px" width="292px" fill="#323232" font-weight="400" align="middle" anchor="middle" family="微软雅黑" size="13px" weight="400" font-style="" opacity="1" y="23.55" transform="rotate(0)"><tspan id="SvgjsTspan1012" dy="16" x="156"><tspan id="SvgjsTspan1013" style="text-decoration:;">用户输入网址：http://dnsimple.com</tspan></tspan></text></g></g><g id="SvgjsG1014"><path id="SvgjsPath1015" d="M207.5 92L207.5 128.5L207.5 128.5L207.5 165" stroke="#323232" stroke-width="2" fill="none" marker-end="url(#SvgjsMarker1016)"></path></g><g id="SvgjsG1018" transform="translate(25,165)"><path id="SvgjsPath1019" d="M 0 4Q 0 0 4 0L 361 0Q 365 0 365 4L 365 173Q 365 177 361 177L 4 177Q 0 177 0 173Z" stroke="rgba(50,50,50,1)" stroke-width="2" fill-opacity="1" fill="#ffffff"></path><g id="SvgjsG1020"><text id="SvgjsText1021" font-family="微软雅黑" text-anchor="middle" font-size="13px" width="345px" fill="#323232" font-weight="400" align="middle" anchor="middle" family="微软雅黑" size="13px" weight="400" font-style="" opacity="1" y="78.55" transform="rotate(0)"></text></g></g><g id="SvgjsG1022" transform="translate(126,179)"><path id="SvgjsPath1023" d="M 0 4Q 0 0 4 0L 159 0Q 163 0 163 4L 163 54Q 163 58 159 58L 4 58Q 0 58 0 54Z" stroke="rgba(50,50,50,1)" stroke-width="2" fill-opacity="1" fill="#ffffff"></path><g id="SvgjsG1024"><text id="SvgjsText1025" font-family="微软雅黑" text-anchor="middle" font-size="13px" width="143px" fill="#323232" font-weight="400" align="middle" anchor="middle" family="微软雅黑" size="13px" weight="400" font-style="" opacity="1" y="19.05" transform="rotate(0)"><tspan id="SvgjsTspan1026" dy="16" x="81.5"><tspan id="SvgjsTspan1027" style="text-decoration:;">Browser：浏览器</tspan></tspan></text></g></g><g id="SvgjsG1028" transform="translate(126,272)"><path id="SvgjsPath1029" d="M 0 4Q 0 0 4 0L 159 0Q 163 0 163 4L 163 44Q 163 48 159 48L 4 48Q 0 48 0 44Z" stroke="rgba(50,50,50,1)" stroke-width="2" fill-opacity="1" fill="#ffffff"></path><g id="SvgjsG1030"><text id="SvgjsText1031" font-family="微软雅黑" text-anchor="middle" font-size="13px" width="143px" fill="#323232" font-weight="400" align="middle" anchor="middle" family="微软雅黑" size="13px" weight="400" font-style="" opacity="1" y="14.05" transform="rotate(0)"><tspan id="SvgjsTspan1032" dy="16" x="81.5"><tspan id="SvgjsTspan1033" style="text-decoration:;">OS：操作系统</tspan></tspan></text></g></g><g id="SvgjsG1034"><path id="SvgjsPath1035" d="M207.5 237L207.5 254.5L207.5 254.5L207.5 272" stroke="#323232" stroke-width="2" fill="none" marker-end="url(#SvgjsMarker1036)"></path></g><g id="SvgjsG1038"><path id="SvgjsPath1039" d="M207.5 342L207.5 376.5L207.5 376.5L207.5 411" stroke="#323232" stroke-width="2" fill="none" marker-end="url(#SvgjsMarker1040)"></path></g><g id="SvgjsG1042" transform="translate(25,411)"><path id="SvgjsPath1043" d="M 0 0L 365 0L 365 72L 0 72Z" stroke="rgba(50,50,50,1)" stroke-width="2" fill-opacity="1" fill="#ffffff"></path><g id="SvgjsG1044"><text id="SvgjsText1045" font-family="微软雅黑" text-anchor="middle" font-size="13px" width="345px" fill="#323232" font-weight="400" align="middle" anchor="middle" family="微软雅黑" size="13px" weight="400" font-style="" opacity="1" y="26.05" transform="rotate(0)"><tspan id="SvgjsTspan1046" dy="16" x="182.5"><tspan id="SvgjsTspan1047" style="text-decoration:;">Resolver：通常是互联网服务提供商</tspan></tspan></text></g></g><g id="SvgjsG1048"><path id="SvgjsPath1049" d="M207.5 483L207.5 521.5L207.5 521.5L207.5 560" stroke="#323232" stroke-width="2" fill="none" marker-end="url(#SvgjsMarker1050)"></path></g><g id="SvgjsG1052" transform="translate(25,560)"><path id="SvgjsPath1053" d="M 0 0L 365 0L 365 215L 0 215Z" stroke="rgba(50,50,50,1)" stroke-width="2" fill-opacity="1" fill="#ffffff"></path><g id="SvgjsG1054"><text id="SvgjsText1055" font-family="微软雅黑" text-anchor="middle" font-size="13px" width="345px" fill="#323232" font-weight="400" align="middle" anchor="middle" family="微软雅黑" size="13px" weight="400" font-style="" opacity="1" y="97.55" transform="rotate(0)"></text></g></g><g id="SvgjsG1056" transform="translate(132.5,575)"><path id="SvgjsPath1057" d="M 0 4Q 0 0 4 0L 146 0Q 150 0 150 4L 150 40Q 150 44 146 44L 4 44Q 0 44 0 40Z" stroke="rgba(50,50,50,1)" stroke-width="2" fill-opacity="1" fill="#ffffff"></path><g id="SvgjsG1058"><text id="SvgjsText1059" font-family="微软雅黑" text-anchor="middle" font-size="13px" width="130px" fill="#323232" font-weight="400" align="middle" anchor="middle" family="微软雅黑" size="13px" weight="400" font-style="" opacity="1" y="12.05" transform="rotate(0)"><tspan id="SvgjsTspan1060" dy="16" x="75"><tspan id="SvgjsTspan1061" style="text-decoration:;">Root</tspan></tspan></text></g></g><g id="SvgjsG1062"><path id="SvgjsPath1063" d="M207.5 619L207.5 634.5L207.5 634.5L207.5 650" stroke="#323232" stroke-width="2" fill="none" marker-end="url(#SvgjsMarker1064)"></path></g><g id="SvgjsG1066" transform="translate(132.5,650)"><path id="SvgjsPath1067" d="M 0 0L 150 0L 150 40L 0 40Z" stroke="rgba(50,50,50,1)" stroke-width="2" fill-opacity="1" fill="#ffffff"></path><g id="SvgjsG1068"><text id="SvgjsText1069" font-family="微软雅黑" text-anchor="middle" font-size="13px" width="130px" fill="#323232" font-weight="400" align="middle" anchor="middle" family="微软雅黑" size="13px" weight="400" font-style="" opacity="1" y="10.05" transform="rotate(0)"><tspan id="SvgjsTspan1070" dy="16" x="75"><tspan id="SvgjsTspan1071" style="text-decoration:;">TLDs</tspan></tspan></text></g></g><g id="SvgjsG1072"><path id="SvgjsPath1073" d="M207.5 690L207.5 704L207.5 704L207.5 718" stroke="#323232" stroke-width="2" fill="none" marker-end="url(#SvgjsMarker1074)"></path></g><g id="SvgjsG1076" transform="translate(130,718)"><path id="SvgjsPath1077" d="M 0 0L 155 0L 155 42L 0 42Z" stroke="rgba(50,50,50,1)" stroke-width="2" fill-opacity="1" fill="#ffffff"></path><g id="SvgjsG1078"><text id="SvgjsText1079" font-family="微软雅黑" text-anchor="middle" font-size="13px" width="135px" fill="#323232" font-weight="400" align="middle" anchor="middle" family="微软雅黑" size="13px" weight="400" font-style="" opacity="1" y="3.05" transform="rotate(0)"><tspan id="SvgjsTspan1080" dy="16" x="77.5"><tspan id="SvgjsTspan1081" style="text-decoration:;">The Authoritative </tspan></tspan><tspan id="SvgjsTspan1082" dy="16" x="77.5"><tspan id="SvgjsTspan1083" style="text-decoration:;">name servers</tspan></tspan></text></g></g><g id="SvgjsG1084"><path id="SvgjsPath1085" d="M207.5 775L207.5 804.5L207.5 804.5L207.5 834" stroke="#323232" stroke-width="2" fill="none" marker-end="url(#SvgjsMarker1086)"></path></g><g id="SvgjsG1088" transform="translate(127,834)"><path id="SvgjsPath1089" d="M 0 0L 161 0L 161 40L 0 40Z" stroke="rgba(50,50,50,1)" stroke-width="2" fill-opacity="1" fill="#ffffff"></path><g id="SvgjsG1090"><text id="SvgjsText1091" font-family="微软雅黑" text-anchor="middle" font-size="13px" width="141px" fill="#323232" font-weight="400" align="middle" anchor="middle" family="微软雅黑" size="13px" weight="400" font-style="" opacity="1" y="10.05" transform="rotate(0)"><tspan id="SvgjsTspan1092" dy="16" x="80.5"><tspan id="SvgjsTspan1093" style="text-decoration:;">获取IP：50.31.213.210</tspan></tspan></text></g></g></svg>